<?xml version="1.0" standalone="no"?>
<!DOCTYPE svg PUBLIC "-//W3C//DTD SVG 1.1//EN" "http://www.w3.org/Graphics/SVG/1.1/DTD/svg11.dtd">
<svg xmlns="http://www.w3.org/2000/svg" xmlns:xlink="http://www.w3.org/1999/xlink" version="1.1" id="Layer_1" x="0px" y="0px" viewBox="0 0 500 500" style="enable-background:new 0 0 500 500;" xml:space="preserve" width="500" height="500">
<style type="text/css">
	.st0{clip-path:url(#SVGID_00000150791972101846715340000016784905201686631600_);}
	.st1{clip-path:url(#SVGID_00000032614733407061875800000005463025884883634342_);}
	.st2{clip-path:url(#SVGID_00000044171209283721851290000001007722479045464499_);}
	.st3{fill-rule:evenodd;clip-rule:evenodd;fill:#8BD8BD;}
	.st4{clip-path:url(#SVGID_00000072272755255874838520000000432363956175924355_);}
	.st5{fill:#E3E6E0;}
	.st6{clip-path:url(#SVGID_00000025410686329768946760000007084123194951625365_);}
	.st7{fill:#243665;}
</style>
<g>
	<defs>
		<rect id="SVGID_1_" x="189.3" y="110.7" width="293.3" height="262.7"/>
	</defs>
	<clipPath id="SVGID_00000085231997765799353060000018320887796228729015_">
		<use xlink:href="#SVGID_1_" style="overflow:visible;"/>
	</clipPath>
	<g style="clip-path:url(#SVGID_00000085231997765799353060000018320887796228729015_);">
		<g>
			<defs>
				
					<rect id="SVGID_00000037681454530194265540000010881837308645507233_" x="175.6" y="113.5" transform="matrix(0.9984 -5.585592e-02 5.585592e-02 0.9984 -13.4496 18.5765)" width="299.9" height="272.8"/>
			</defs>
			<clipPath id="SVGID_00000069365828103604460430000012540777888649373620_">
				<use xlink:href="#SVGID_00000037681454530194265540000010881837308645507233_" style="overflow:visible;"/>
			</clipPath>
			<g style="clip-path:url(#SVGID_00000069365828103604460430000012540777888649373620_);">
				<g>
					<defs>
						
							<rect id="SVGID_00000102516192069393476490000007460331812569378979_" x="175.6" y="113.5" transform="matrix(0.9984 -5.585592e-02 5.585592e-02 0.9984 -13.4496 18.5765)" width="299.9" height="272.8"/>
					</defs>
					<clipPath id="SVGID_00000014630975918336448350000007293237229863216824_">
						<use xlink:href="#SVGID_00000102516192069393476490000007460331812569378979_" style="overflow:visible;"/>
					</clipPath>
					<g style="clip-path:url(#SVGID_00000014630975918336448350000007293237229863216824_);">
						<path class="st3" d="M414.2,270.2c-0.9,15.1-4.7,30.2-11.5,44.7c-6,12.8-13.9,24-23.3,33.6c28.1,23.1,67.9,31.1,103,19.6        C447.3,339.3,430.2,305,414.2,270.2z M398.7,292.5c-17.3,56.8-76.8,88.8-133,71.9c-56.2-17-88.2-76.6-70.9-133.4        c16.5-54.6,76.9-87.4,132.6-70.5c3.9,1.2,7.4,2.4,10.7,3.8c-8.1,26.8-16.3,53.7-24.4,80.4c-12.4-11.1-34.7-7.5-40,10.1        c-3.2,13.6,2.5,26.5,15.9,30.6c13.4,4,26.4-4.7,30.4-17.6l2.7-8.9l21.9-72.4c14-46.3,61-77.5,108.9-74.9        C410.9,171,417.1,232.1,398.7,292.5"/>
					</g>
				</g>
			</g>
		</g>
	</g>
</g>
<g>
	<defs>
		<rect id="SVGID_00000073710114411075996030000002021012466956113846_" x="17" y="144" width="238" height="222.1"/>
	</defs>
	<clipPath id="SVGID_00000158003563351243558810000001596110404384642986_">
		<use xlink:href="#SVGID_00000073710114411075996030000002021012466956113846_" style="overflow:visible;"/>
	</clipPath>
	<g style="clip-path:url(#SVGID_00000158003563351243558810000001596110404384642986_);">
		<path class="st5" d="M147.3,366.1H71.9c-4.7,0-8.6-3.8-8.6-8.6V252.9c0-4.7,3.8-8.6,8.6-8.6h49.2c4.7,0,8.6,3.8,8.6,8.6V291    c0,4.7,3.8,8.6,8.6,8.6h10.9c25.6,0,40.2-16,40.2-43.9v-0.6c0-24.5-12.3-41-32.8-43.9c-2.2-0.2-4.4-0.4-6.6-0.5l-0.3,0    c-0.1,0-0.2,0-0.4,0h-0.2l-5.2-0.1H90.4c-27.2,0-51.7-16.1-62.6-41l-10.8-24.8h131.3c32.3,0,59.5,10.7,78.6,31.1    c18.4,19.6,28.1,46.7,28.1,78.5v0.6c0,31.8-9.8,59.3-28.4,79.3C207.3,355,179.9,366.1,147.3,366.1"/>
	</g>
</g>
<g>
	<defs>
		<rect id="SVGID_00000127038680040979593540000016431158576799048374_" x="17" y="133.8" width="238" height="222.2"/>
	</defs>
	<clipPath id="SVGID_00000008136844821574526450000003889607784324993932_">
		<use xlink:href="#SVGID_00000127038680040979593540000016431158576799048374_" style="overflow:visible;"/>
	</clipPath>
	<g style="clip-path:url(#SVGID_00000008136844821574526450000003889607784324993932_);">
		<path class="st7" d="M255,243.4v0.6c0,31.8-9.8,59.3-28.4,79.3c-19.4,20.9-46.8,32-79.3,32H71.9c-4.7,0-8.6-3.8-8.6-8.6V242    c0-4.7,3.8-8.6,8.6-8.6h49.2c4.7,0,8.6,3.8,8.6,8.6v38.2c0,4.7,3.8,8.6,8.6,8.6h10.9c25.6,0,40.2-16,40.2-43.9v-0.6    c0-24.5-12.3-41-32.8-43.9c-2.2-0.2-4.4-0.4-6.6-0.5l-0.3,0c-0.1,0-0.2,0-0.4,0h-0.2l-5.2-0.2H90.4c-27.2,0-51.7-16.1-62.6-41    l-10.8-24.8h131.3c32.3,0,59.5,10.7,78.6,31.1C245.3,184.5,255,211.6,255,243.4"/>
	</g>
</g>
</svg>